<svg xmlns="http://www.w3.org/2000/svg" xmlns:svg="http://www.w3.org/2000/svg" id="svg24" width="64" height="64" version="1.1"><metadata id="metadata30"/><g id="g1217" transform="matrix(1.425,0,0,1.425,-2.2,-2.2)"><path style="fill:#ccc" id="path4" d="m 31,11 a 7,7 0 0 1 -7,7 7,7 0 0 1 -7,-7 7,7 0 0 1 7,-7 7,7 0 0 1 7,7 z"/><path style="fill:#ccc" id="path6" d="m 31,37 a 7,7 0 0 1 -7,7 7,7 0 0 1 -7,-7 7,7 0 0 1 7,-7 7,7 0 0 1 7,7 z"/><path style="fill:#ccc" id="path8" d="m 37,31 a 7,7 0 0 1 -7,-7 7,7 0 0 1 7,-7 7,7 0 0 1 7,7 7,7 0 0 1 -7,7 z"/><path style="fill:#ccc" id="path10" d="m 11,31 a 7,7 0 0 1 -7,-7 7,7 0 0 1 7,-7 7,7 0 0 1 7,7 7,7 0 0 1 -7,7 z"/></g></svg>