<svg xmlns="http://www.w3.org/2000/svg" xmlns:svg="http://www.w3.org/2000/svg" id="svg7384" width="64" height="64" version="1.1"><metadata id="metadata90"/><title id="title9167">Gnome Symbolic Icon Theme</title><g id="g822" transform="matrix(3.976368,0,0,3.976368,0.18905612,-190.67661)"><path id="path817" style="color:#bebebe;text-indent:0;text-transform:none;opacity:.25;fill:#bebebe;stroke-width:2.61393428" d="m 8.0000003,48.203941 c -4.3022747,0 -7.79605936,3.493785 -7.79605936,7.796059 0,4.302275 3.49378466,7.796059 7.79605936,7.796059 4.3022747,0 7.7960587,-3.493784 7.7960587,-7.796059 0,-4.302274 -3.493784,-7.796059 -7.7960587,-7.796059 z"/><path d="m 8.0000002,49.966653 c -3.3295177,0 -6.0333474,2.70383 -6.0333474,6.033347 0,3.329518 2.7038297,6.033347 6.0333474,6.033347 3.3295178,0 6.0333468,-2.703829 6.0333468,-6.033347 0,-3.329517 -2.703829,-6.033347 -6.0333468,-6.033347 z" style="color:#bebebe;text-indent:0;text-transform:none;opacity:.5;fill:#bebebe;stroke-width:2.02291608" id="path14"/><path id="path9555" style="color:#bebebe;text-indent:0;text-transform:none;fill:#bebebe" d="m 8,53.02 c -1.6459,0 -2.9825,1.3366 -2.9825,2.9825 0,1.6459 1.3366,2.9825 2.9825,2.9825 1.6459,0 2.9825,-1.3366 2.9825,-2.9825 C 10.9825,54.3566 9.6459,53.02 8,53.02 Z"/></g></svg>