<svg xmlns="http://www.w3.org/2000/svg" xmlns:svg="http://www.w3.org/2000/svg" id="svg7" width="60" height="60" version="1.1"><defs id="defs3"><style id="current-color-scheme" type="text/css">.ColorScheme-Text{color:#565656}</style></defs><path style="fill:#ccc;stroke-width:3.57143;fill-opacity:1" id="path5" d="m 44.285714,40.714286 h 7.142857 c 0,0 3.571429,0 3.571429,3.571428 v 7.142857 C 55,51.428571 55,55 51.428571,55 h -7.142857 c 0,0 -3.571428,0 -3.571428,-3.571429 v -7.142857 c 0,0 0,-3.571428 3.571428,-3.571428 z m -17.857143,0 h 7.142858 c 0,0 3.571428,0 3.571428,3.571428 v 7.142857 c 0,0 0,3.571429 -3.571428,3.571429 h -7.142858 c 0,0 -3.571428,0 -3.571428,-3.571429 v -7.142857 c 0,0 0,-3.571428 3.571428,-3.571428 z m -17.8571424,0 h 7.1428574 c 0,0 3.571428,0 3.571428,3.571428 v 7.142857 c 0,0 0,3.571429 -3.571428,3.571429 H 8.5714286 C 8.5714286,55 5,55 5,51.428571 v -7.142857 c 0,0 0,-3.571428 3.5714286,-3.571428 z M 44.285714,22.857143 h 7.142857 c 0,0 3.571429,0 3.571429,3.571428 v 7.142858 c 0,0 0,3.571428 -3.571429,3.571428 h -7.142857 c 0,0 -3.571428,0 -3.571428,-3.571428 v -7.142858 c 0,0 0,-3.571428 3.571428,-3.571428 z m -17.857143,0 h 7.142858 c 0,0 3.571428,0 3.571428,3.571428 v 7.142858 c 0,0 0,3.571428 -3.571428,3.571428 h -7.142858 c 0,0 -3.571428,0 -3.571428,-3.571428 v -7.142858 c 0,0 0,-3.571428 3.571428,-3.571428 z m -17.8571424,0 h 7.1428574 c 0,0 3.571428,0 3.571428,3.571428 v 7.142858 c 0,0 0,3.571428 -3.571428,3.571428 H 8.5714286 c 0,0 -3.5714286,0 -3.5714286,-3.571428 v -7.142858 c 0,0 0,-3.571428 3.5714286,-3.571428 z M 44.285714,5 h 7.142857 C 51.428571,5 55,5 55,8.5714286 v 7.1428574 c 0,0 0,3.571428 -3.571429,3.571428 h -7.142857 c 0,0 -3.571428,0 -3.571428,-3.571428 V 8.5714286 c 0,0 0,-3.5714286 3.571428,-3.5714286 z M 26.428571,5 h 7.142858 c 0,0 3.571428,0 3.571428,3.5714286 v 7.1428574 c 0,0 0,3.571428 -3.571428,3.571428 h -7.142858 c 0,0 -3.571428,0 -3.571428,-3.571428 V 8.5714286 c 0,0 0,-3.5714286 3.571428,-3.5714286 z M 8.5714286,5 h 7.1428574 c 0,0 3.571428,0 3.571428,3.5714286 v 7.1428574 c 0,0 0,3.571428 -3.571428,3.571428 H 8.5714286 c 0,0 -3.5714286,0 -3.5714286,-3.571428 V 8.5714286 C 5,8.5714286 5,5 8.5714286,5 Z" class="ColorScheme-Text"/></svg>