<svg xmlns="http://www.w3.org/2000/svg" xmlns:svg="http://www.w3.org/2000/svg" id="svg24" width="64" height="64" version="1.1"><metadata id="metadata30"/><path style="fill:#ccc;stroke-width:1.425" id="circle4" d="M 32,3.5 A 28.5,28.5 0 0 0 3.4999999,32 28.5,28.5 0 0 0 32,60.5 28.5,28.5 0 0 0 60.5,32 28.5,28.5 0 0 0 32,3.5 Z m 0,11.4 c 1.045985,0.0037 2.089421,0.103416 3.117188,0.297803 L 27.062597,29.149999 21.106542,18.83545 C 24.169337,16.296366 28.021605,14.904702 32,14.9 Z m 5.953272,1.091016 c 4.740983,1.766 8.456597,5.540721 10.147558,10.308985 H 32 Z M 19.005224,20.89502 27.062597,34.85 H 15.142139 C 14.98198,33.908431 14.900981,32.955096 14.9,32 c 0.0024,-4.0724 1.458135,-8.010248 4.105224,-11.10498 z m 17.93218,8.254979 H 48.857861 C 49.018021,30.091571 49.09902,31.044905 49.1,32 c -0.0024,4.072401 -1.458135,8.010249 -4.105223,11.104982 z m 0,5.700001 5.956053,10.314551 C 39.830663,47.703635 35.978395,49.095299 32,49.100001 30.954016,49.096301 29.91058,48.996585 28.882812,48.802199 Z M 15.899169,37.700001 H 32 L 26.046728,48.008985 C 21.305745,46.242986 17.590131,42.468264 15.899169,37.700001 Z"/></svg>