<svg xmlns="http://www.w3.org/2000/svg" xmlns:svg="http://www.w3.org/2000/svg" id="svg7" width="60" height="60" version="1.1"><defs id="defs3"><style id="current-color-scheme" type="text/css">.ColorScheme-Text{color:#565656}</style></defs><path style="fill:#ccc;stroke-width:4.16667;fill-opacity:1" id="path5" d="M 9.1666667,34.166667 H 21.666667 c 0,0 4.166666,0 4.166666,4.166666 v 12.5 c 0,0 0,4.166667 -4.166666,4.166667 H 9.1666667 C 9.1666667,55 5,55 5,50.833333 v -12.5 c 0,0 0,-4.166666 4.1666667,-4.166666 z m 29.1666663,0 h 12.5 c 0,0 4.166667,0 4.166667,4.166666 v 12.5 C 55,50.833333 55,55 50.833333,55 h -12.5 c 0,0 -4.166666,0 -4.166666,-4.166667 v -12.5 c 0,0 0,-4.166666 4.166666,-4.166666 z M 38.333333,5 h 12.5 C 50.833333,5 55,5 55,9.1666667 V 21.666667 c 0,0 0,4.166666 -4.166667,4.166666 h -12.5 c 0,0 -4.166666,0 -4.166666,-4.166666 V 9.1666667 c 0,0 0,-4.1666667 4.166666,-4.1666667 z M 9.1666667,5 H 21.666667 c 0,0 4.166666,0 4.166666,4.1666667 V 21.666667 c 0,0 0,4.166666 -4.166666,4.166666 H 9.1666667 c 0,0 -4.1666667,0 -4.1666667,-4.166666 V 9.1666667 C 5,9.1666667 5,5 9.1666667,5 Z" class="ColorScheme-Text"/></svg>