<svg xmlns="http://www.w3.org/2000/svg" xmlns:svg="http://www.w3.org/2000/svg" id="svg7384" width="64" height="64" version="1.1"><metadata id="metadata90"/><title id="title9167">Gnome Symbolic Icon Theme</title><g id="layer9" transform="matrix(4.4285714,0,0,4.4285714,-1690.5814,-1496.1228)"><path id="path9555" style="color:#bebebe;text-indent:0;text-transform:none;fill:#bebebe" d="m 389,342.02 c -1.6459,0 -2.9825,1.3366 -2.9825,2.9825 0,1.6459 1.3366,2.9825 2.9825,2.9825 1.6459,0 2.9825,-1.3366 2.9825,-2.9825 0,-1.6459 -1.3366,-2.9825 -2.9825,-2.9825 z"/><path id="path9557" style="color:#bebebe;text-indent:0;text-transform:none;fill:#bebebe" d="m 388.97,338.06 c -3.8578,0 -7,3.1422 -7,7 0,3.8578 3.1422,7 7,7 3.8578,0 7,-3.1422 7,-7 0,-3.8578 -3.1422,-7 -7,-7 z m 0,1 c 3.3212,0 6.0312,2.6788 6.0312,6 0,3.3212 -2.7101,6 -6.0312,6 -3.3212,0 -6,-2.6788 -6,-6 0,-3.3212 2.6788,-6 6,-6 z"/></g></svg>