<svg xmlns="http://www.w3.org/2000/svg" xmlns:svg="http://www.w3.org/2000/svg" id="svg24" width="64" height="64" version="1.1"><metadata id="metadata30"/><path style="fill:#ccc;stroke-width:.127232" id="path2" d="M 60.5,56.549447 41.82232,37.617305 c 2.544643,-3.549778 4.058706,-7.91384 4.058706,-12.621432 0,-11.845313 -9.504241,-21.4895058 -21.184151,-21.4895058 C 13.00424,3.4936387 3.5,13.137842 3.5,24.983149 c 0,11.845312 9.50424,21.489511 21.184151,21.489511 5.063839,0 9.707812,-1.806693 13.359376,-4.822099 L 56.619418,60.493645 Z M 24.684151,41.510603 c -8.982589,0 -16.298436,-7.417628 -16.298436,-16.527455 0,-9.109821 7.315847,-16.5274487 16.298436,-16.5274487 8.982589,0 16.298438,7.4176277 16.298438,16.5274487 0,9.109827 -7.303126,16.527455 -16.298438,16.527455 z"/></svg>